HIERARCHY
ROOT Hips
{
  OFFSET 0 0 0
  CHANNELS 6 Xposition Yposition Zposition Zrotation Yrotation Xrotation
  JOINT LeftThigh
  {
    OFFSET 8.409438 0 -5.917753
    CHANNELS 3 Zrotation Yrotation Xrotation
    JOINT LeftLeg
    {
      OFFSET 0 0 -42.358652
      CHANNELS 3 Zrotation Yrotation Xrotation
      JOINT LeftFoot
      {
        OFFSET 0 0 -39.357303
        CHANNELS 3 Zrotation Yrotation Xrotation
      }
    }
  }
  JOINT RightThigh
  {
    OFFSET -8.409438 0 -5.917753
    CHANNELS 3 Zrotation Yrotation Xrotation
    JOINT RightLeg
    {
      OFFSET 0 0 -42.358652
      CHANNELS 3 Zrotation Yrotation Xrotation
      JOINT RightFoot
      {
        OFFSET 0 0 -39.357303
        CHANNELS 3 Zrotation Yrotation Xrotation
      }
    }
  }
  JOINT SpineLow
  {
    OFFSET 0 0 4.719101
    CHANNELS 3 Zrotation Yrotation Xrotation
    JOINT SpineMid
    {
      OFFSET 0 0 12.899191
      CHANNELS 3 Zrotation Yrotation Xrotation
      JOINT Chest
      {
        OFFSET 0 0 12.899191
        CHANNELS 3 Zrotation Yrotation Xrotation
        JOINT LeftShoulder
        {
          OFFSET 7.550562 1.41573 9.438202
          CHANNELS 3 Zrotation Yrotation Xrotation
          JOINT LeftArm
          {
            OFFSET 9.155056 0 4.247191
            CHANNELS 3 Zrotation Yrotation Xrotation
            JOINT LeftForearm
            {
              OFFSET 0 0 25.771955
              CHANNELS 3 Zrotation Yrotation Xrotation
              JOINT LeftHand
              {
                OFFSET 0 0 25.197169
                CHANNELS 3 Zrotation Yrotation Xrotation
              }
            }
          }
        }
        JOINT RightShoulder
        {
          OFFSET -7.550562 1.41573 9.438202
          CHANNELS 3 Zrotation Yrotation Xrotation
          JOINT RightArm
          {
            OFFSET -9.155056 0 4.247191
            CHANNELS 3 Zrotation Yrotation Xrotation
            JOINT RightForearm
            {
              OFFSET 0 0 -25.771955
              CHANNELS 3 Zrotation Yrotation Xrotation
              JOINT RightHand
              {
                OFFSET 0 0 -25.197169
                CHANNELS 3 Zrotation Yrotation Xrotation
              }
            }
          }
        }
        JOINT Neck
        {
          OFFSET 0 0 15.101124
          CHANNELS 3 Zrotation Yrotation Xrotation
          JOINT Head
          {
            OFFSET 0 0 11.325843
            CHANNELS 3 Zrotation Yrotation Xrotation
            End Site
            {
              OFFSET 0 0 14.157303
            }
          }
        }
      }
    }
  }
}
MOTION
Frames: 12
Frame Time: 0.0
0.0  89.887642  0.0  -3.140827  -11.599982  -90.410636  7.571355  -21.081305  -13.31872  7.34647  6.81061  45.408918  5.924433  2.565449  3.146535  -14.223744  6.876367  -28.700659  12.417068  -2.487789  44.144928  6.649811  1.570985  1.044784  0.920033  -1.477594  -0.047359  2.520603  -4.036376  -0.185906  2.520603  -4.036376  -0.185906  -13.807717  27.23746  4.028083  129.442499  35.153192  173.109505  -6.750147  -15.135388  51.929705  83.853434  -8.909909  13.929247  -10.593166  10.667218  16.124483  51.651656  19.343701  14.507771  -5.441789  2.120918  -42.73505  90.170661  1.840548  -6.948174  6.744219  4.97784  3.765908  5.024466  3.775617  2.767996  
0.0  89.887642  0.0  -2.30939  -11.712462  -90.467463  6.983311  -19.976772  -13.629596  7.588509  6.570603  45.997751  6.110302  2.605303  3.309448  -14.906294  7.428517  -29.192586  12.875027  -2.493516  44.452271  6.753684  1.831981  0.954584  0.857014  -1.33836  -0.029352  2.346395  -3.656703  -0.127804  2.346395  -3.656703  -0.127804  -13.688115  27.256042  4.181362  130.099735  35.638634  172.79482  -6.260365  -15.715778  52.920832  84.345436  -8.409204  14.314113  -10.978488  10.720229  16.070172  51.301226  18.86537  14.489582  -5.437123  2.304992  -43.488714  89.719006  2.139871  -6.489754  7.069486  4.986725  3.551007  5.269939  3.781835  2.604169  
0.0  89.887642  0.0  -1.620728  -11.406993  -90.676771  5.884405  -18.985821  -13.797524  8.800334  6.116861  47.19485  5.441229  2.136991  2.764571  -15.379385  7.883787  -29.152363  13.251364  -2.285331  44.545228  6.228636  1.512059  0.660571  0.721934  -1.234742  0.087258  1.970455  -3.377301  0.201764  1.970455  -3.377301  0.201764  -13.986407  27.352452  3.633245  130.341003  35.945436  172.091084  -5.891729  -16.809509  53.839095  84.765631  -7.891893  14.66473  -11.434924  10.668454  15.522416  50.924905  18.499591  14.596729  -5.426245  2.594264  -44.447346  89.074853  2.704132  -6.111475  7.417388  5.129272  2.99407  5.534293  3.884047  2.182027  
0.0  89.887642  0.0  -1.219764  -10.376865  -90.867047  3.97225  -18.272874  -14.195143  9.212393  5.769636  47.641107  5.676269  2.134052  3.074933  -15.675283  8.140556  -28.488607  13.137129  -1.632956  44.317287  6.421226  1.709631  0.554495  0.492364  -1.209093  0.214214  1.336127  -3.309113  0.561304  1.336127  -3.309113  0.561304  -14.749322  27.656798  2.739805  130.452651  36.146704  171.250358  -5.601611  -18.144523  54.6246  85.197173  -7.316793  15.06242  -12.038512  10.742815  14.886657  50.597012  18.220069  14.858756  -5.631886  2.600237  -45.831381  88.459477  3.366868  -5.911049  7.72298  5.441773  2.318092  5.767279  4.11144  1.668619  
0.0  89.887642  0.0  -1.125357  -8.630166  -91.168524  1.747208  -17.890101  -14.787272  9.315816  5.411789  47.930584  5.905329  2.142873  3.52233  -15.647588  8.340799  -26.92896  12.343408  -0.623229  43.58253  6.394362  1.800252  0.487024  0.19854  -1.268435  0.317102  0.52648  -3.469651  0.857065  0.52648  -3.469651  0.857065  -16.127534  28.327543  1.908831  130.739317  36.395141  170.601648  -5.218052  -19.674659  55.09505  85.76634  -6.588876  15.648987  -12.866649  11.075354  14.560806  50.270056  18.07912  15.311248  -6.131082  1.984236  -47.895814  87.765688  4.040303  -5.890065  7.867832  5.85471  1.73202  5.879143  4.41421  1.222509  
0.0  89.887642  0.0  -1.245548  -6.042313  -91.716391  0.071557  -17.597243  -15.334509  8.240936  5.193424  47.760852  6.220963  2.171319  3.921274  -15.171884  8.691816  -24.472265  10.849737  0.477964  42.426278  6.430576  1.960591  0.470263  -0.151671  -1.403516  0.386387  -0.43746  -3.833814  1.066057  -0.43746  -3.833814  1.066058  -17.701963  29.410435  1.858551  130.981214  36.947589  170.491032  -4.620471  -21.50577  55.229893  86.464085  -5.628448  16.700999  -13.956039  11.690748  14.52016  49.827968  18.106041  16.204634  -7.247298  0.3597  -50.818528  87.039969  4.66  -6.203915  7.718837  6.344419  1.349103  5.769175  4.776257  0.930538  
0.0  89.887642  0.0  -1.606455  -2.446018  -92.101724  -1.074318  -17.274453  -15.667467  6.401306  4.766191  46.667649  6.244897  2.034613  4.185443  -14.964822  8.80433  -21.734671  9.382096  1.483046  40.8768  6.341866  1.965693  0.444548  -0.522613  -1.607375  0.379053  -1.455665  -4.385034  1.072275  -1.455665  -4.385034  1.072275  -19.112554  30.402124  2.409655  130.615601  37.251383  171.20386  -3.543454  -23.979525  54.949754  87.363509  -4.137525  18.660746  -15.367407  12.467781  14.723301  49.05309  18.359677  17.416501  -9.938267  -1.826528  -54.964291  87.543174  4.742035  -7.739879  7.042491  6.891876  1.099038  5.263053  5.182381  0.743634  
0.0  89.887642  0.0  -2.149441  2.127953  -92.841296  -1.803016  -17.140908  -15.287356  3.711672  4.518874  44.618885  6.236748  1.789508  4.366067  -15.172284  8.570138  -18.197791  8.315233  2.320993  38.830288  5.9975  1.974265  0.405009  -0.980208  -1.87266  0.336162  -2.710286  -5.10399  0.996539  -2.710286  -5.10399  0.996539  -20.027374  31.386274  3.056799  129.4144  36.874344  172.152637  -1.702912  -27.01823  54.12222  88.662956  -2.254037  21.36999  -16.245752  13.63159  15.563727  47.491351  18.719524  18.393637  -10.964353  -3.193646  -59.551488  87.771846  4.994882  -7.625534  6.07003  7.511209  1.172153  4.531519  5.645706  0.802957  
0.0  89.887642  0.0  -2.985564  7.852704  -93.300656  -2.98576  -17.270431  -15.051651  0.978206  4.180055  42.073471  6.050335  1.557649  4.372067  -16.491993  7.582903  -14.528448  7.805906  3.133566  36.242259  5.255901  2.047716  0.33948  -1.496046  -2.221292  0.187519  -4.117171  -6.057319  0.651722  -4.117171  -6.057319  0.651722  -21.420495  32.217524  2.136029  127.420569  35.05498  172.642454  0.609923  -30.268155  52.737958  90.476572  -0.302028  24.573452  -16.798218  15.23949  16.738404  44.409672  18.908735  18.634942  -12.057951  -2.104845  -63.901362  87.202051  5.987238  -7.993388  4.632443  8.247492  1.387116  3.449492  6.196564  0.975695  
0.0  89.887642  0.0  -3.939953  14.618351  -93.683253  -4.83421  -17.574535  -14.894172  -1.653508  3.879463  39.232818  5.898705  1.396758  4.267231  -18.545907  6.439168  -10.781109  7.085011  3.915743  33.197146  4.12607  2.155485  0.227304  -1.940903  -2.534251  0.006744  -5.323952  -6.921425  0.223101  -5.323952  -6.921424  0.223101  -22.877601  32.49198  0.817144  123.796469  32.518997  173.107018  2.615185  -33.470618  50.940258  92.899416  0.994399  27.474378  -17.735886  16.732363  18.158201  39.612235  18.850706  18.156745  -13.133684  0.126896  -68.062023  85.385698  7.161271  -7.946697  2.309526  8.784886  1.456398  1.707663  6.594307  1.056734  
0.0  89.887642  0.0  -4.982464  21.993977  -94.101147  -7.026075  -17.991732  -14.926916  -3.853643  3.710981  36.433754  5.842785  1.219171  3.964468  -20.369984  5.429367  -6.851901  5.108339  4.87161  29.573685  2.789972  2.20071  0.062628  -2.266142  -2.765037  -0.019228  -6.217076  -7.552086  0.208231  -6.217076  -7.552086  0.208231  -24.873668  31.906984  -1.349775  119.41715  30.161742  173.647982  3.735935  -36.079875  49.485523  95.513051  1.26383  28.593464  -18.482192  17.637706  19.3273  33.464422  17.994324  17.15892  -14.131647  1.553461  -73.116354  82.770836  7.601249  -7.807566  -0.840664  8.877657  0.76364  -0.640403  6.657223  0.583879  
0.0  89.887642  0.0  -5.946218  29.601721  -94.740318  -9.406638  -18.249426  -14.939725  -5.355691  3.399773  33.844338  5.337207  0.930084  3.525532  -21.667799  4.593395  -2.645076  1.573424  5.993875  25.431606  1.682312  2.132739  -0.285614  -2.390461  -2.889763  0.016044  -6.564835  -7.888354  0.331864  -6.564835  -7.888354  0.331864  -27.228961  30.423338  -3.871809  115.834791  27.685594  174.257021  3.345898  -38.228901  50.110391  96.967194  1.123307  27.217  -19.089512  18.341528  21.168346  26.817099  16.040868  15.436203  -14.747487  2.395943  -78.596058  79.96503  7.774993  -7.084164  -4.91496  8.462891  -0.229863  -3.676281  6.349496  -0.103585  
